<?xml version="1.0" standalone="no"?>
<!DOCTYPE svg PUBLIC "-//W3C//DTD SVG 20010904//EN"
 "http://www.w3.org/TR/2001/REC-SVG-20010904/DTD/svg10.dtd">
<svg version="1.0" xmlns="http://www.w3.org/2000/svg"
 width="500.000000pt" height="500.000000pt" viewBox="0 0 500.000000 500.000000"
 preserveAspectRatio="xMidYMid meet">

<g transform="translate(0.000000,500.000000) scale(0.100000,-0.100000)"
fill="#000000" stroke="none">
<path d="M2345 4994 c-1007 -68 -1880 -741 -2203 -1700 -90 -268 -125 -489
-125 -794 0 -305 34 -522 125 -793 301 -901 1080 -1546 2033 -1683 164 -24
505 -24 670 0 647 92 1219 417 1620 921 71 89 192 272 233 350 53 102 122 250
122 261 0 5 8 28 19 50 42 88 102 295 122 419 5 33 14 87 20 120 16 97 23 527
10 635 -28 231 -93 491 -152 614 -10 22 -19 45 -19 50 0 11 -69 159 -122 261
-41 78 -162 261 -233 350 -142 178 -317 344 -503 478 -317 228 -719 388 -1109
441 -114 16 -400 27 -508 20z m386 -689 c457 -68 857 -290 1148 -639 158 -189
286 -433 352 -671 61 -219 84 -477 58 -676 -56 -444 -229 -800 -536 -1104
-274 -271 -623 -443 -1021 -504 -91 -14 -394 -14 -481 -1 -112 18 -185 31
-211 40 -14 4 -59 18 -100 30 -343 104 -684 348 -911 650 -90 119 -202 331
-257 485 -17 47 -48 165 -60 225 -6 30 -15 79 -21 108 -6 30 -11 67 -11 83 l0
29 1193 2 1192 3 0 143 0 143 -1188 -1 c-1073 0 -1188 1 -1194 15 -5 16 8 117
29 220 21 104 90 304 141 410 130 268 337 515 578 688 52 37 162 101 244 142
206 102 337 144 585 184 92 15 357 12 471 -4z"/>
</g>
</svg>
